<svg fill="none"
    height="79"
    viewBox="0 0 79 79"
    width="79"
    xmlns="http://www.w3.org/2000/svg">
    <path
        d="M69.7904 69.7904C73.725 65.8559 75.7688 60.8581 76.8344 55.5834C77.8979 50.3189 78 44.708 78 39.5C78 34.292 77.8979 28.6811 76.8344 23.4166C75.7688 18.1419 73.725 13.1441 69.7904 9.20956C65.8559 5.27499 60.8581 3.23122 55.5834 2.16563C50.3189 1.1021 44.708 1 39.5 1H39.4987L39.3175 0.999997C29.0391 0.999712 17.4194 0.999391 9.20954 9.20957C5.27499 13.1441 3.23122 18.1419 2.16564 23.4166C1.1021 28.6811 1 34.292 1 39.5C1 44.708 1.1021 50.3189 2.16564 55.5834C3.23122 60.8581 5.27499 65.8559 9.20956 69.7904C13.1441 73.725 18.1419 75.7688 23.4166 76.8344C28.6811 77.8979 34.292 78 39.5 78C44.708 78 50.3189 77.8979 55.5834 76.8344C60.8581 75.7688 65.8559 73.725 69.7904 69.7904Z"
        stroke="white"
        stroke-width="2" />
</svg>
